<svg width="200" height="60" viewBox="0 0 200 60" fill="none" xmlns="http://www.w3.org/2000/svg">
<path d="M60.6353 59.911C60.6353 59.911 59.9208 57.2541 58.4917 51.9403C58.4917 51.9403 62.9623 44.6955 71.9035 30.206C73.4522 27.728 74.4596 25.5843 74.9258 23.775C75.4141 21.9598 75.438 20.2329 74.9973 18.5945C74.3959 16.3583 73.1927 14.6742 71.3878 13.5424C69.6051 12.4046 67.6692 12.1146 65.5803 12.6723C63.2247 13.3011 61.5688 14.7161 60.6126 16.9173C59.6563 19.1185 59.5802 21.7136 60.384 24.7026L51.4505 27.0875C50.7776 24.5856 50.4341 22.4229 50.4201 20.5994C50.4001 18.7538 50.6928 16.9195 51.2982 15.0968C52.1754 12.5133 53.6696 10.2753 55.7806 8.3828C57.8917 6.49032 60.3806 5.16142 63.2473 4.39611C67.9585 3.13839 72.2977 3.64114 76.2648 5.90437C80.2318 8.1676 82.8435 11.6351 84.1 16.3068C84.9277 19.3844 84.9608 22.3419 84.1995 25.1792C83.4605 28.0106 81.696 31.5903 78.9062 35.9184L71.1157 48.0006L90.9829 42.6968L93.2695 51.1989L60.6353 59.911Z" fill="white" fill-opacity="0.25"/>
<path d="M2.53189 44.0026C2.53189 44.0026 2.53189 38.3948 2.53189 27.1792C2.53189 27.1792 1.68792 27.1792 0 27.1792C0 27.1792 0 25.6113 0 22.4755C0 22.4755 0.843962 22.4755 2.53189 22.4755C2.53189 22.4755 2.53189 20.0857 2.53189 15.3062C2.53189 15.3062 4.25788 15.3062 7.70988 15.3062C7.70988 15.3062 7.70988 17.6959 7.70988 22.4755C7.70988 22.4755 11.4918 22.4755 13.5732 22.4755C13.5732 22.4755 13.5732 24.0434 13.5732 27.1792C13.5732 27.1792 9.79123 27.1792 7.70988 27.1792C7.70988 27.1792 7.70988 32.787 7.70988 44.0026C7.70988 44.0026 5.98388 44.0026 2.53189 44.0026Z" fill="white"/>
<path d="M19.1319 44.0026C19.1319 44.0026 16.5556 36.8269 11.403 22.4755C11.403 22.4755 13.2623 22.4755 16.9808 22.4755C16.9808 22.4755 18.2689 26.8568 20.8452 35.6194C20.8452 35.6194 22.0509 31.2381 24.4622 22.4755C24.4622 22.4755 25.8392 22.4755 28.5932 22.4755C28.5932 22.4755 29.7798 26.8568 32.1531 35.6194C32.1531 35.6194 33.4666 31.2381 36.0937 22.4755C36.0937 22.4755 37.9339 22.4755 41.6143 22.4755C41.6143 22.4755 39.019 29.6512 33.8283 44.0026C33.8283 44.0026 32.7495 44.0026 30.592 44.0026C30.592 44.0026 29.2277 39.3558 26.4991 30.0622C26.4991 30.0622 25.1095 34.709 22.3301 44.0026C22.3301 44.0026 21.264 44.0026 19.1319 44.0026Z" fill="white"/>
<path d="M53.4361 21.9824C55.4921 21.9824 57.3958 22.4882 59.1472 23.4997C60.8985 24.5113 62.2819 25.8895 63.2972 27.6344C64.3125 29.3667 64.8201 31.2507 64.8201 33.2865C64.8201 35.3096 64.3061 37.1873 63.2781 38.9196C62.2628 40.6392 60.8731 42.0048 59.1091 43.0163C57.345 44.0153 55.4286 44.5147 53.36 44.5147C51.2786 44.5147 49.3496 44.0153 47.5728 43.0163C45.8087 42.0048 44.4127 40.6392 43.3847 38.9196C42.3567 37.1873 41.8428 35.3096 41.8428 33.2865C41.8428 31.7439 42.141 30.2771 42.7375 28.8862C43.3467 27.4827 44.1652 26.2815 45.1932 25.2826C46.2339 24.271 47.4713 23.4681 48.9054 22.8738C50.3395 22.2795 51.8497 21.9824 53.4361 21.9824ZM53.2267 26.724C51.5515 26.724 50.1047 27.3689 48.8863 28.6586C47.6807 29.9357 47.0779 31.4657 47.0779 33.2486C47.0779 35.0441 47.687 36.5804 48.9054 37.8574C50.1237 39.1345 51.5896 39.7731 53.3029 39.7731C55.0289 39.7731 56.5074 39.1408 57.7384 37.8764C58.9695 36.5993 59.585 35.0693 59.585 33.2865C59.585 31.4404 58.9695 29.8851 57.7384 28.6207C56.5074 27.3563 55.0035 26.724 53.2267 26.724Z" fill="white"/>
<path d="M78.9263 44.0026C78.9263 44.0026 78.9263 34.4371 78.9263 15.3062C78.9263 15.3062 80.6523 15.3062 84.1043 15.3062C84.1043 15.3062 84.1043 18.3598 84.1043 24.467C85.1196 23.4681 86.1349 22.76 87.1502 22.3428C88.1782 21.9129 89.3965 21.6979 90.8053 21.6979C92.8612 21.6979 94.7205 22.191 96.383 23.1773C98.0456 24.1636 99.3464 25.5291 100.286 27.2741C101.225 29.0064 101.694 30.9473 101.694 33.0968C101.694 36.0177 100.85 38.5655 99.1624 40.7404C97.1826 43.2566 94.5174 44.5147 91.1669 44.5147C89.5679 44.5147 88.1972 44.2681 87.055 43.775C85.9128 43.2819 84.7833 42.441 83.6665 41.2525V44.0026H78.9263ZM89.9867 26.4395C88.1845 26.4395 86.6997 27.0718 85.5321 28.3362C84.3772 29.6006 83.7997 31.2128 83.7997 33.1727C83.7997 35.1073 84.3962 36.6942 85.5892 37.9333C86.7822 39.1598 88.3114 39.7731 90.177 39.7731C92.0299 39.7731 93.5402 39.1661 94.7078 37.9523C95.8754 36.7258 96.4592 35.1326 96.4592 33.1727C96.4592 31.1875 95.8563 29.569 94.6507 28.3172C93.4577 27.0654 91.903 26.4395 89.9867 26.4395Z" fill="white"/>
<path d="M124.024 22.4755C124.024 22.4755 124.024 29.6512 124.024 44.0026C124.024 44.0026 122.425 44.0026 119.227 44.0026C119.227 44.0026 119.227 43.3135 119.227 41.9353C118.237 42.8836 117.279 43.5537 116.353 43.9457C115.439 44.325 114.335 44.5147 113.04 44.5147C111.581 44.5147 110.273 44.2239 109.119 43.6422C107.964 43.048 107.031 42.2071 106.32 41.1197C105.762 40.2472 105.368 39.2863 105.14 38.2368C104.911 37.1873 104.797 35.7838 104.797 34.0262V22.4755H109.994V33.002C109.994 34.494 110.077 35.6636 110.242 36.5108C110.407 37.3453 110.686 38.0028 111.079 38.4833C111.828 39.3432 112.831 39.7731 114.087 39.7731C114.988 39.7731 115.788 39.596 116.486 39.242C117.197 38.8753 117.736 38.3632 118.104 37.7057C118.383 37.2252 118.574 36.6056 118.675 35.847C118.789 35.0757 118.846 34.0009 118.846 32.6227V22.4755H124.024Z" fill="white"/>
<path d="M149.933 15.3062C149.933 15.3062 149.933 24.8716 149.933 44.0026C149.933 44.0026 148.347 44.0026 145.174 44.0026C145.174 44.0026 145.174 43.0732 145.174 41.2145C144.121 42.3778 143.036 43.2187 141.919 43.7371C140.802 44.2555 139.514 44.5147 138.054 44.5147C136.037 44.5147 134.196 44.0216 132.534 43.0353C130.884 42.0491 129.583 40.6898 128.631 38.9575C127.679 37.2252 127.203 35.3096 127.203 33.2106C127.203 31.099 127.679 29.1581 128.631 27.3879C129.596 25.6177 130.903 24.2268 132.553 23.2152C134.215 22.2037 136.037 21.6979 138.016 21.6979C139.374 21.6979 140.643 21.9381 141.824 22.4186C143.017 22.8991 143.994 23.5566 144.755 24.3912V15.3062H149.933ZM138.664 26.4395C136.912 26.4395 135.434 27.0718 134.228 28.3362C133.035 29.6006 132.439 31.1685 132.439 33.0399C132.439 34.9239 133.06 36.5171 134.304 37.8195C135.561 39.1219 137.084 39.7731 138.873 39.7731C140.624 39.7731 142.103 39.1345 143.309 37.8574C144.527 36.5804 145.136 35.0188 145.136 33.1727C145.136 31.2254 144.527 29.6196 143.309 28.3552C142.09 27.0781 140.542 26.4395 138.664 26.4395Z" fill="white"/>
<path d="M175.861 15.3062C175.861 15.3062 175.861 24.8716 175.861 44.0026C175.861 44.0026 174.275 44.0026 171.102 44.0026C171.102 44.0026 171.102 43.0732 171.102 41.2145C170.049 42.3778 168.964 43.2187 167.847 43.7371C166.73 44.2555 165.442 44.5147 163.982 44.5147C161.965 44.5147 160.124 44.0216 158.462 43.0353C156.812 42.0491 155.511 40.6898 154.559 38.9575C153.607 37.2252 153.132 35.3096 153.132 33.2106C153.132 31.099 153.607 29.1581 154.559 27.3879C155.524 25.6177 156.831 24.2268 158.481 23.2152C160.143 22.2037 161.965 21.6979 163.944 21.6979C165.302 21.6979 166.571 21.9381 167.752 22.4186C168.945 22.8991 169.922 23.5566 170.683 24.3912V15.3062H175.861ZM164.592 26.4395C162.84 26.4395 161.362 27.0718 160.156 28.3362C158.963 29.6006 158.367 31.1685 158.367 33.0399C158.367 34.9239 158.989 36.5171 160.232 37.8195C161.489 39.1219 163.012 39.7731 164.801 39.7731C166.552 39.7731 168.031 39.1345 169.237 37.8574C170.455 36.5804 171.064 35.0188 171.064 33.1727C171.064 31.2254 170.455 29.6196 169.237 28.3552C168.018 27.0781 166.47 26.4395 164.592 26.4395Z" fill="white"/>
<path d="M181.953 51.191C181.953 51.191 183.305 48.1247 186.008 41.9922C186.008 41.9922 183.368 35.4866 178.089 22.4755C178.089 22.4755 180.062 22.4755 184.009 22.4755C184.009 22.4755 185.608 27.1287 188.806 36.4349C188.806 36.4349 190.551 31.7818 194.041 22.4755C194.041 22.4755 196.028 22.4755 200 22.4755C200 22.4755 195.844 32.0473 187.531 51.191C187.531 51.191 185.672 51.191 181.953 51.191Z" fill="white"/>
</svg>
